<?xml version="1.0" encoding="UTF-8"?>
<svg id="Layer_2" data-name="Layer 2" xmlns="http://www.w3.org/2000/svg" xmlns:xlink="http://www.w3.org/1999/xlink" viewBox="0 0 2819.93 328.34">
  <defs>
    <style>
      .cls-1 {
        fill: none;
        stroke: #e2e2e2;
        stroke-miterlimit: 10;
        stroke-width: 3px;
      }

      .cls-2 {
        fill: #eaeaea;
      }

      .cls-3 {
        fill: url(#linear-gradient);
        fill-rule: evenodd;
      }
    </style>
    <linearGradient id="linear-gradient" x1="1913.99" y1="-2043.49" x2="-231.71" y2="-731.49" gradientTransform="translate(0 -1154.73) scale(1 -1)" gradientUnits="userSpaceOnUse">
      <stop offset="0" stop-color="#fff"/>
      <stop offset="1" stop-color="#fff"/>
    </linearGradient>
  </defs>
  <g id="Layer_1-2" data-name="Layer 1">
    <path id="Layer" class="cls-3" d="M206.71,112.3c3.9.6,5.4,3.9,3.2,7.2l-16.7,33.4c-1.8,3.6-6.5,6.8-10.5,7h-7c-5.4,0-10.8-.4-16.2-.8-2.5-.2-5-.4-7.5-.7-2.5-.2-5.1-.2-7.4-1.3-1.8-.8-3.3-2.1-4.4-3.8-2.8-4.5-1.2-10.8-.8-15.8.33-5.2.67-10.43,1-15.7.3-3.7,1.6-8.6,5.6-10.1,3.6-1.4,7.9-1.6,11.7-2.3,11.3-2.1,22.9.1,34.2,1.3,4.93.53,9.87,1.07,14.8,1.6h0ZM166.11,254c-1.7,3.7-6.1,5.1-9.6,3.3l-34.5-33.1c-2.9-2.9-3.3-7.9-1-11.3,3.2-4.7,7.5-8.9,11.9-12.5,4.3-3.5,9-6.4,14.1-8.5,3.5-1.5,7.1-2.6,10.8-3.2,3.4-.5,7.4-.8,10.7.4,7.3,2.5,6.7,12.5,7.4,18.7.6,4.4,1.2,8.9,1.7,13.3.5,4-.7,10.2-2.5,13.8l-9,19.1ZM9.61,131.7c-.1-1.1,0-2,.4-2.9,1.1-2.7,4.1-2.6,6.4-2.1,9,2.1,18.5,3.1,27.7,4.5,2.6.5,4.7,3,4.7,5.6.1,3-.5,6.2-1.2,9.1-.67,2.93-1.67,5.77-3,8.5-1.7,3.5-4.5,7.2-7.2,10-2,1.9-4.7,3.4-7.4,2.9-2-.4-3.6-1.8-5.1-3.3-5.5-5.4-10.8-11-13.1-18.5-1.2-4-1.8-8.2-2.2-12.3.07-.53.07-1.03,0-1.5h0ZM94.11,69.4c2-3.7,6.3-3.9,9.1-1.3,2,1.8,3.7,4.1,5.5,6s3.6,3.7,5.3,5.6c3.4,3.7,7,7.5,10.4,11.2,1.6,1.7,3.3,3.4,4.8,5.1,2.2,2.5,2.4,6.7.4,9.4-6.2,8.2-15.9,14.8-25.9,17.3-3.1.8-6.3,1.2-9.5,1.3-2.1,0-4.7-.1-6.5-1.5-1.7-1.4-2.9-3.7-3.1-5.8l-1.5-20.4c-.2-3.3,1-8.4,2.7-11.2l8.3-15.7ZM166.91,25.5c.2-.13.4-.27.6-.4,3.4-1.7,6.7-1.1,10.3-.1l17.2,6.3c3.8,1.3,3.1,3.8,1.2,7.1-1.9,2.9-3.7,5.8-5.6,8.6-1.7,2.5-3.3,4.9-4.9,7.4-1.6,2.4-3,4.8-4.5,7.2-2.5,3.9-6.1,7-10.2,8.9-3.3,1.4-6.8,2.1-10.3,2.5-3.3.3-6.7.6-10,.8-3.1.2-6.3.5-9.4-.1-2.6-.5-5.1-1.8-6.7-3.9-1.5-2.2-1.9-5-2.2-7.7-.2-2.2-.4-4.4.2-6.5.8-2.9,2.8-4.2,5-6.1,1.7-1.4,3.3-2.9,5-4.4,4.33-3.73,8.67-7.37,13-10.9,2-1.6,4-3.1,6-4.6,1.8-1.4,3.3-3,5.3-4.1h0ZM77.31,241.8c.2.87.27,1.73.2,2.6-.1,2.3-1.5,4.2-2.8,6l-9.9,11.6c-2.2,2.6-4.3.9-6-1l-15.2-20.5c-2-2.7-3.4-7.5-2.9-10.9.3-2.4.9-4.8,1.4-7.1.5-2.2,1.1-4.3,1.8-6.4.8-2.4,1.1-4.9,2.3-7.1,1.2-2.6,3.5-4.9,6.4-5.6,3-.6,7.7.8,10.3,2.3,3.4,1.9,4.3,6.9,5.6,10.3,1.67,4.27,3.27,8.57,4.8,12.9,1,3.1,2.1,6.2,3.1,9.2.3,1.4.7,2.5.9,3.7ZM74.01,178.7c-1.2-3.6-2.1-6.6-2.1-6.7,0,0,1.6-2.7,3.6-5.9l16.4-20c2.5-2.8,7.5-4.4,11.3-3.6l15,6.1c3.5,1.3,5.8,5.5,5.1,9.1l-16.4,38c-1.5,3.4-5.8,6.7-9.5,7.3,0,0-1.6.2-8.4-.9l-2.2-.4c-2.1-.7-5.1-4.1-6.5-7.6l-6.3-15.4ZM75.71,29.2c-.3-1.8-.5-3.6,0-5.2.3-.8.7-1.5,1.2-2.1,2.2-2.5,5.4-3.1,8.2-4.4,1.3-.6,2.7-1,4-1.5,3.7-1.3,7.4-2.7,11.2-4.1,8.2-3,16.6-6,24.8-9,2.4-.9,4.9-2.1,7.4-2.7,2.6-.7,5.4.4,5.5,3.4.1,2.2-1.7,4-2.9,5.6-1.3,1.9-2.6,3.6-3.9,5.5-1.7,2.3-3.3,4.7-5,7-2.3,3.4-7.3,7.1-11.1,8.3-3.2,1.3-6.4,2.5-9.6,3.8-5.4,2-10.9,4.9-16.5,5.9-.7.2-1.2.2-1.8.3-2.9.2-5.9-.5-7.9-2.5-1.7-1.7-2.4-4.1-3-6.3-.2-.67-.4-1.33-.6-2ZM24.21,76c1.1-2.3,3-4.2,5.3-5.3,2.8-1.3,5.8-1.9,8.7-2.8,2.1-.6,4.4-1.1,6.4-1.8,2.1-.6,4.5-.8,6.4,0,1.6.7,2.9,2,3.7,3.4,1.2,1.9,1.9,3.9,2.9,5.8,1,1.8,2,3.7,3,5.6,1.2,2.2,2.5,4.4,3.5,6.7,1.4,2.7.4,6.4-2.1,8.1l-11.4,7.8c-2.5,1.7-6.8,2-9.5.7l-20.1-9.5c-2.3-2-3.2-5.9-1.8-8.6,1.4-3.1,2.3-4.5,3.9-8,.2-.4.9-1.7,1.1-2.1ZM92.81,307.9c-1.9-1-3.6-2.1-5.1-3.5-2.5-2.3-2.6-6.1-3-9.1-.7-4.3-1.1-8.3-1.6-12.8-.2-2.5-.5-4.9.3-7.3,2-5.8,8.4-7,13.6-8.2,6.7-1.6,13.3-3,20-4.4,1.8-.4,3.57-.73,5.3-1,.5-.2,1.1-.2,1.6,0,.7.2,1.1,1,1.3,1.7,1.3,4.5,3.4,8.9,5,13.3,2.6,7.1,5.2,14.3,7.8,21.5,2.4,6.3,4.7,12.6,7,19,.5,1.2.9,2.4,1.4,3.6.7,3.9-1.8,6.3-5.6,5.3-6.2-2.2-12.3-4.6-18.5-6.8-6.4-2.4-12.8-4.6-19.3-7l-10.2-4.3ZM295.41,233.3c.8-3.9,3.6-9.7,6.1-12.8,0,0,15.4-19,19.6-24,1.5-1.9,2.5-3.1,3.2-4l.3-.4c.3-.4,1.1-1.2,1.7-1.8.6-.5,2.3-.8,1.2,3l-32.5,72.2c-2.1,3.4-3.6,2.9-3.2-1.2l3.6-31ZM255.31,270.1c-2.7,3-6.2,2.5-7.8-1.2-2.7-6.2-5.3-12.5-7.9-18.8-1.3-3.2-2.7-6.4-4-9.6-2.1-4.8-4.3-10.1-3.4-15.4.6-3.5,2.5-6.6,4.6-9.4,6.7-9,12.6-18.7,18.8-28.1,2.1-3.4,5.2-3.2,6.9.4l23.6,31.8c2.5,3.1,3.2,8.7,1.7,12.5l-32.5,37.8ZM259.21,66.2c-4,.3-9.4-2-11.9-5.1l-13-15.8c-2.9-2.8-2-6,1.9-7l21.7-5.1c4-1,8.5-1.3,10-.1,1.5,1.1,5.7,6.6,6.9,10.3l5,14.8c1.4,3.8-.7,7-4.7,7.2l-15.9.8ZM248.61,78.4c.2-.4.37-.77.5-1.1,1.9-3.2,6.5-5.7,10.1-5.9l17-.9c4-.2,7.5,2.9,7.8,6.9l2.2,35.3c-.3,4.1-3.4,5.8-7,4l-31.5-15.8c-3.3-2.3-4.9-7.3-3.5-11,1.4-3.9,2.5-7.9,4.4-11.5ZM318.31,99.7c.1,1.4-.9,2.9-2.1,3.8-5.7,4.4-12.6,7.7-18.9,11.4-3.4,2-6.1.4-5.9-3.7l-1-29.5c-.2-4,2.1-5.1,5.2-2.6,7.3,5.7,15.8,10.9,21.5,18.3.5.7,1,1.3,1.2,2.3h0ZM316.71,183c1.9,3.5,2.6,7.4,1.7,8.6l-1.4,1.6c-4,4.9-18.5,22.8-18.5,22.8-2.5,3.1-6.5,3-8.8-.3l-23.8-32.3c-1.6-3.7-1.6-9.7.1-13.4l17.8-35.8c2.2-3.4,5.5-3.3,7.3.3l25.6,48.5ZM331.11,167c-.2,4-1.6,9.4-3,11.8-1.5,2.5-5.8,3.7-7.7.1l-25.5-48.3c-1.8-3.5-.5-8.1,3-10.1l17.1-10c3.4-2,7.1-.5,8.2,3.3,0,0,7.9,30,7.9,49.5v3.7ZM298.01,63.6c5.2,7,10.2,15.6,10.2,15.6,2,3.5,1.2,4.3-1.9,1.8l-12.6-10.2c-3-2.6-6.4-7.2-7.5-10.2-1.2-3-3.8-14.9-1.1-12,0,0,7.5,7.8,12.9,15ZM194.31,16.1c-3.4-2.9-2.4-7.6,1.7-8.1l11.8-2.2c3.9-.7,10.2-.1,13.9,1.4l31.8,15.8c3.5,2.1,3.2,5-.5,6.4l-22.3,4.5c-3.9.8-9.9-.3-13.3-2.5l-23.1-15.3ZM213.21,47.1c2.8-2.9,7.4-3,10.2-.2l14.1,16.8c2.6,3.1,3,8.4,1.1,11.9l-4.7,13.6c-1.4,3.7-5.8,6.8-9.8,6.7l-42.4-1.4c-4-.2-6.4-3.5-5.4-7.4l36.9-40ZM234.21,106.6c1.1-1.2,2.1-2.7,3.8-3.3,1-.3,2.1-.3,3.1.1,1.5.5,2.8,1.5,4.2,2l32.1,16.2c3.6,1.8,4.6,6,2.4,9.3l-18.3,36.2c-1.8,3.6-5.9,4.7-9.2,2.4l-38.2-28.7c-3.2-2.4-4.3-7.3-2.4-10.9l22.5-23.3ZM202.11,147.4c2.1-3.5,6.3-4.4,9.5-1.9l38.1,28.5c3.3,2.3,4.1,6.9,1.9,10.2l-23.1,36.4c-2.7,3.7-5.2,6.4-9.2,6.1l-26.7-1.9c-4.1,0-7.5-3.3-7.7-7.3,0,0-.3-5.2-.9-13-.4-6-.8-12.8-.8-12.8-.3-4,1-10.2,2.9-13.7l16-30.6ZM180.81,236.4c1.8-3.5,6.7-6.5,10.7-6.5l27.8,2.1c4,.3,8.5,3.5,10.1,7.3l13,30.9c1.7,3.7,0,7.8-3.8,9.1l-72.2,28.1c-3.5,1.3-5.3.7-4.3-3.2l18.7-67.8ZM192.61,327.6c-.53.13-1.03.23-1.5.3-9,2-16-3.3-23.3-7.5-3.4-2.2-3.6-6.2-.1-7.9l69.7-27.5c3.7-1.4,5.2.3,3.3,3.8l-10.4,22.5c-1.7,3.7-6.1,7.7-9.9,9-6.6,1.7-13.2,3.4-19.8,5.1-2.6.7-5.3,1.5-8,2.2ZM240.21,311.3c-3.5,2-4.9.8-3.1-2.8l10.2-21.2c2-3.5,6.2-8.4,9.3-10.9l27.8-28.1c2.6-2.3,2.9-2.2,2.9,1.8l-.6,19c.1,4-2.2,9.4-5.2,12.1l-41.3,30.1ZM16.81,220c-1.7,4.6-4.2,4.6-5.6-.2-.2-.7-.4-1.4-.6-2.1-2-7.1-4.1-14.1-6.1-21C2.41,189.8-.19,182.8.01,175.5c.1-.8.2-1.6.7-2.2.9-1.1,2.7-.9,4-.4,7.3,2.8,10.5,10.8,13.3,17.6l1.7,4.3c1.9,4.6,2,12.1.3,16.7l-3.2,8.5ZM534.11,127.3c0,38-27.1,62.5-73.9,62.5-9.4,0-17.4-.2-24.9-.8v61c-5.2,1-10.2,1.6-15.7,1.6-5.2,0-10.2-.6-15.7-1.6V75.1c14.6-3.5,33.7-6,55.2-6,52.3,0,75,23.4,75,58.2ZM501.51,127.5c0-19-13.5-31.1-41.7-31.1-8.2,0-16.5.5-24.5,1.4v64.2c7.2.6,15.5.8,24.9.8,29.7,0,41.3-14.9,41.3-35.3h0ZM607.71,254.1c-38.3,0-69.2-31-69.2-69.4s30.9-69.3,69.2-69.3,69.3,31,69.3,69.3-31,69.4-69.3,69.4ZM645.51,184.6c0-23.4-16.9-42.2-37.8-42.2s-37.8,18.8-37.8,42.2,16.9,42.2,37.8,42.2,37.8-18.9,37.8-42.2ZM696.61,249.9V69c5-1,10.2-1.4,15.4-1.4s10.8.3,16,1.4v180.9c-4.9,1.1-10.4,1.4-15.7,1.4-4.9,0-10.2-.3-15.7-1.4ZM880.51,122c-16.6,82.7-44.7,137.9-98.2,185.6-10.2-2.8-16.9-11.6-19.9-20.5,14.1-13.4,26.7-27,35.3-40.5-25.6-41.3-39.7-80.5-50.5-125.1,5-1.7,13.5-2.8,21.5-2.8,3.9,0,8.6.6,12.7,1.1,7.2,33.6,17.4,64.7,32.8,97,.9,2,1.7,3.9,2.3,5.6.8-2,1.3-3.9,2.2-5.6,14.8-30.6,23.1-63.7,29.7-97,3.9-.6,8.6-1.1,12.4-1.1,7,0,14.2,1.4,19.7,3.3ZM1045.41,73.2v175.3c-9.1,2.2-19.9,2.8-29,2.5l-81.9-117.5-5-9.4.6,11v114.7c-5.6,1.1-10.2,1.7-15.5,1.7-4.9,0-9.4-.6-15.2-1.7V74.8c6.7-2.4,19.1-4.4,29.3-2.7l81.7,117.4,4.9,8.8-.5-12.4v-112.7c5.8-1.1,9.6-1.6,15.2-1.6,5.2,0,10.1.5,15.4,1.6ZM1134.91,254.1c-38.3,0-69.2-31-69.2-69.4s30.9-69.3,69.2-69.3,69.3,31,69.3,69.3-31,69.4-69.3,69.4ZM1172.81,184.6c0-23.4-16.9-42.2-37.8-42.2s-37.8,18.8-37.8,42.2,16.9,42.2,37.8,42.2,37.8-18.9,37.8-42.2ZM1342.11,121.5c-11.8,48.5-29.7,92.3-50.7,128.5-5,1-10.2,1.3-14.9,1.3-5,0-10.2-.2-15.5-1.3-24-40-38.9-80.5-51.3-128.5,4.4-1.4,13.5-2.8,21.5-2.8,4.2,0,8.6.6,12.1,1.1,10,39.4,22.9,75.5,32.3,97,.6,1.4,1.1,2.8,1.4,4.2l1.6-4.2c10.8-24.8,21.8-57.6,31.5-97,3.6-.6,8-1.1,12.1-1.1,7.5,0,15,1.1,19.9,2.8h0ZM1414.51,254.1c-38.3,0-69.3-31-69.3-69.4s31-69.3,69.3-69.3,69.2,31,69.2,69.3-30.9,69.4-69.2,69.4ZM1452.31,184.6c0-23.4-16.9-42.2-37.8-42.2s-37.7,18.8-37.7,42.2,16.8,42.2,37.7,42.2,37.8-18.9,37.8-42.2ZM1519.41,168.4c-13.3,0-24.1-11.1-24.1-24.8s10.8-24.8,24.1-24.8,24.2,11.1,24.2,24.8-10.8,24.8-24.2,24.8ZM1538.61,143.7c0-11-8.5-19.8-19-19.8s-19.1,8.8-19.1,19.8,8.5,19.8,19.1,19.8,19-8.9,19-19.8ZM1524.71,146.1l6.7,11.5c-.8.2-1.7.4-2.8.4-.9,0-2.1,0-2.8-.1l-6.3-10.8c-1.6,0-3.2-.1-4.8-.2v10.9c-.7.2-1.4.2-2,.2-1.1,0-2.1,0-3.2-.2v-27.6c2.8-.7,6.7-1,10-1,7.7,0,10.9,3.4,10.9,8.7,0,4-2.4,6.8-5.7,8.2h0ZM1514.71,141.9c1.6.2,3.2.2,4.8.2,4.2,0,5.3-1.9,5.3-4.2,0-2.5-1.4-4-5.3-4-1.6,0-3.2,0-4.8.3v7.7Z"/>
    <line class="cls-1" x1="1714.31" y1="2.76" x2="1714.31" y2="325.58"/>
    <g>
      <path class="cls-2" d="M1921,252.02h-37.23V73.55h102.29v31.01h-65.06v46.02h60.55v30.88h-60.55v70.56Z"/>
      <path class="cls-2" d="M2016.46,80.27c0-12.12,6.75-18.19,20.26-18.19s20.26,6.06,20.26,18.19c0,5.78-1.69,10.27-5.07,13.49-3.38,3.21-8.44,4.82-15.2,4.82-13.51,0-20.26-6.1-20.26-18.31ZM2055.28,252.02h-37.23V115.54h37.23v136.47Z"/>
      <path class="cls-2" d="M2220.32,252.02h-37.23v-79.71c0-9.85-1.75-17.23-5.25-22.16-3.5-4.92-9.08-7.39-16.72-7.39-10.42,0-17.94,3.48-22.58,10.44-4.64,6.96-6.96,18.49-6.96,34.61v64.21h-37.23V115.54h28.44l5,17.46h2.08c4.15-6.59,9.87-11.58,17.15-14.95,7.28-3.38,15.56-5.07,24.84-5.07,15.87,0,27.91,4.29,36.13,12.88,8.22,8.59,12.33,20.98,12.33,37.17v88.99Z"/>
      <path class="cls-2" d="M2345.32,252.02l-7.2-18.55h-.98c-6.27,7.89-12.72,13.37-19.35,16.42-6.63,3.05-15.28,4.58-25.94,4.58-13.1,0-23.42-3.74-30.94-11.23-7.53-7.49-11.29-18.15-11.29-31.98s5.07-25.17,15.2-32.04,25.41-10.68,45.84-11.41l23.68-.73v-5.98c0-13.83-7.08-20.75-21.24-20.75-10.91,0-23.72,3.3-38.45,9.89l-12.33-25.15c15.71-8.22,33.12-12.33,52.25-12.33s32.35,3.99,42.11,11.96c9.77,7.98,14.65,20.1,14.65,36.38v90.94h-26ZM2334.33,188.79l-14.4.49c-10.82.33-18.88,2.28-24.17,5.86-5.29,3.58-7.93,9.03-7.93,16.36,0,10.5,6.02,15.75,18.07,15.75,8.62,0,15.52-2.48,20.69-7.45,5.17-4.96,7.75-11.55,7.75-19.78v-11.23Z"/>
      <path class="cls-2" d="M2535.63,252.02h-37.23v-79.71c0-9.85-1.75-17.23-5.25-22.16-3.5-4.92-9.08-7.39-16.72-7.39-10.42,0-17.94,3.48-22.58,10.44-4.64,6.96-6.96,18.49-6.96,34.61v64.21h-37.23V115.54h28.44l5,17.46h2.08c4.15-6.59,9.87-11.58,17.15-14.95,7.28-3.38,15.56-5.07,24.84-5.07,15.87,0,27.91,4.29,36.13,12.88,8.22,8.59,12.33,20.98,12.33,37.17v88.99Z"/>
      <path class="cls-2" d="M2629.38,254.46c-42.48,0-63.72-23.32-63.72-69.95,0-23.19,5.78-40.91,17.33-53.16,11.55-12.25,28.12-18.37,49.68-18.37,15.79,0,29.95,3.09,42.48,9.28l-10.99,28.81c-5.86-2.36-11.31-4.29-16.36-5.8-5.05-1.51-10.09-2.26-15.14-2.26-19.37,0-29.05,13.75-29.05,41.26s9.68,40.04,29.05,40.04c7.16,0,13.79-.96,19.9-2.87s12.21-4.9,18.31-8.97v31.86c-6.02,3.83-12.11,6.47-18.25,7.93-6.15,1.46-13.9,2.2-23.25,2.2Z"/>
      <path class="cls-2" d="M2764.26,254.46c-21.97,0-39.14-6.06-51.51-18.19-12.37-12.12-18.55-29.3-18.55-51.51s5.72-40.55,17.15-53.04c11.43-12.49,27.24-18.74,47.42-18.74s34.3,5.49,45.04,16.48,16.11,26.17,16.11,45.53v18.07h-88.01c.41,10.58,3.54,18.84,9.4,24.78,5.86,5.94,14.08,8.91,24.66,8.91,8.22,0,15.99-.85,23.32-2.56s14.97-4.43,22.95-8.18v28.81c-6.51,3.26-13.47,5.68-20.87,7.26-7.41,1.59-16.44,2.38-27.1,2.38ZM2759.01,139.47c-7.89,0-14.08,2.5-18.55,7.51-4.48,5-7.04,12.11-7.69,21.3h52.25c-.16-9.2-2.56-16.3-7.2-21.3-4.64-5.01-10.91-7.51-18.8-7.51Z"/>
    </g>
  </g>
</svg>