<svg version="1.2" xmlns="http://www.w3.org/2000/svg" viewBox="0 0 1545 330" width="1545" height="330">
	<title>main-logo-svg</title>
	<defs>
		<linearGradient id="g1" x1="1947" y1="837.4" x2="-198.7" y2="-474.6" gradientUnits="userSpaceOnUse">
			<stop offset="0" stop-color="#ffffff"/>
			<stop offset="1" stop-color="#ffffff"/>
		</linearGradient>
	</defs>
	<style>
		.s0 { fill: url(#g1) } 
	</style>
	<path id="Layer" fill-rule="evenodd" class="s0" d="m207.7 113.3c3.9 0.6 5.4 3.9 3.2 7.2l-16.7 33.4c-1.8 3.6-6.5 6.8-10.5 7 0 0-0.3 0-7 0-5.4 0-10.8-0.4-16.2-0.8-2.5-0.2-5-0.4-7.5-0.7-2.5-0.2-5.1-0.2-7.4-1.3-1.8-0.8-3.3-2.1-4.4-3.8-2.8-4.5-1.2-10.8-0.8-15.8q0.5-7.8 1-15.7c0.3-3.7 1.6-8.6 5.6-10.1 3.6-1.4 7.9-1.6 11.7-2.3 11.3-2.1 22.9 0.1 34.2 1.3q7.4 0.8 14.8 1.6zm-40.6 141.7c-1.7 3.7-6.1 5.1-9.6 3.3l-34.5-33.1c-2.9-2.9-3.3-7.9-1-11.3 3.2-4.7 7.5-8.9 11.9-12.5 4.3-3.5 9-6.4 14.1-8.5 3.5-1.5 7.1-2.6 10.8-3.2 3.4-0.5 7.4-0.8 10.7 0.4 7.3 2.5 6.7 12.5 7.4 18.7 0.6 4.4 1.2 8.9 1.7 13.3 0.5 4-0.7 10.2-2.5 13.8zm-156.5-122.3c-0.1-1.1 0-2 0.4-2.9 1.1-2.7 4.1-2.6 6.4-2.1 9 2.1 18.5 3.1 27.7 4.5 2.6 0.5 4.7 3 4.7 5.6 0.1 3-0.5 6.2-1.2 9.1q-1 4.4-3 8.5c-1.7 3.5-4.5 7.2-7.2 10-2 1.9-4.7 3.4-7.4 2.9-2-0.4-3.6-1.8-5.1-3.3-5.5-5.4-10.8-11-13.1-18.5-1.2-4-1.8-8.2-2.2-12.3q0.1-0.8 0-1.5zm84.5-62.3c2-3.7 6.3-3.9 9.1-1.3 2 1.8 3.7 4.1 5.5 6 1.8 1.9 3.6 3.7 5.3 5.6 3.4 3.7 7 7.5 10.4 11.2 1.6 1.7 3.3 3.4 4.8 5.1 2.2 2.5 2.4 6.7 0.4 9.4-6.2 8.2-15.9 14.8-25.9 17.3-3.1 0.8-6.3 1.2-9.5 1.3-2.1 0-4.7-0.1-6.5-1.5-1.7-1.4-2.9-3.7-3.1-5.8l-1.5-20.4c-0.2-3.3 1-8.4 2.7-11.2zm72.8-43.9q0.3-0.2 0.6-0.4c3.4-1.7 6.7-1.1 10.3-0.1l17.2 6.3c3.8 1.3 3.1 3.8 1.2 7.1-1.9 2.9-3.7 5.8-5.6 8.6-1.7 2.5-3.3 4.9-4.9 7.4-1.6 2.4-3 4.8-4.5 7.2-2.5 3.9-6.1 7-10.2 8.9-3.3 1.4-6.8 2.1-10.3 2.5-3.3 0.3-6.7 0.6-10 0.8-3.1 0.2-6.3 0.5-9.4-0.1-2.6-0.5-5.1-1.8-6.7-3.9-1.5-2.2-1.9-5-2.2-7.7-0.2-2.2-0.4-4.4 0.2-6.5 0.8-2.9 2.8-4.2 5-6.1 1.7-1.4 3.3-2.9 5-4.4q6.5-5.6 13-10.9c2-1.6 4-3.1 6-4.6 1.8-1.4 3.3-3 5.3-4.1zm-89.6 216.3q0.3 1.3 0.2 2.6c-0.1 2.3-1.5 4.2-2.8 6l-9.9 11.6c-2.2 2.6-4.3 0.9-6-1l-15.2-20.5c-2-2.7-3.4-7.5-2.9-10.9 0.3-2.4 0.9-4.8 1.4-7.1 0.5-2.2 1.1-4.3 1.8-6.4 0.8-2.4 1.1-4.9 2.3-7.1 1.2-2.6 3.5-4.9 6.4-5.6 3-0.6 7.7 0.8 10.3 2.3 3.4 1.9 4.3 6.9 5.6 10.3q2.5 6.4 4.8 12.9c1 3.1 2.1 6.2 3.1 9.2 0.3 1.4 0.7 2.5 0.9 3.7zm-3.3-63.1c-1.2-3.6-2.1-6.6-2.1-6.7 0 0 1.6-2.7 3.6-5.9l16.4-20c2.5-2.8 7.5-4.4 11.3-3.6l15 6.1c3.5 1.3 5.8 5.5 5.1 9.1l-16.4 38c-1.5 3.4-5.8 6.7-9.5 7.3 0 0-1.6 0.2-8.4-0.9-2.2-0.4-2.2-0.4-2.2-0.4-2.1-0.7-5.1-4.1-6.5-7.6zm1.7-149.5c-0.3-1.8-0.5-3.6 0-5.2 0.3-0.8 0.7-1.5 1.2-2.1 2.2-2.5 5.4-3.1 8.2-4.4 1.3-0.6 2.7-1 4-1.5 3.7-1.3 7.4-2.7 11.2-4.1 8.2-3 16.6-6 24.8-9 2.4-0.9 4.9-2.1 7.4-2.7 2.6-0.7 5.4 0.4 5.5 3.4 0.1 2.2-1.7 4-2.9 5.6-1.3 1.9-2.6 3.6-3.9 5.5-1.7 2.3-3.3 4.7-5 7-2.3 3.4-7.3 7.1-11.1 8.3-3.2 1.3-6.4 2.5-9.6 3.8-5.4 2-10.9 4.9-16.5 5.9-0.7 0.2-1.2 0.2-1.8 0.3-2.9 0.2-5.9-0.5-7.9-2.5-1.7-1.7-2.4-4.1-3-6.3q-0.3-1-0.6-2zm-51.5 46.8c1.1-2.3 3-4.2 5.3-5.3 2.8-1.3 5.8-1.9 8.7-2.8 2.1-0.6 4.4-1.1 6.4-1.8 2.1-0.6 4.5-0.8 6.4 0 1.6 0.7 2.9 2 3.7 3.4 1.2 1.9 1.9 3.9 2.9 5.8 1 1.8 2 3.7 3 5.6 1.2 2.2 2.5 4.4 3.5 6.7 1.4 2.7 0.4 6.4-2.1 8.1l-11.4 7.8c-2.5 1.7-6.8 2-9.5 0.7l-20.1-9.5c-2.3-2-3.2-5.9-1.8-8.6 1.4-3.1 2.3-4.5 3.9-8 0.2-0.4 0.9-1.7 1.1-2.1zm68.6 231.9c-1.9-1-3.6-2.1-5.1-3.5-2.5-2.3-2.6-6.1-3-9.1-0.7-4.3-1.1-8.3-1.6-12.8-0.2-2.5-0.5-4.9 0.3-7.3 2-5.8 8.4-7 13.6-8.2 6.7-1.6 13.3-3 20-4.4q2.7-0.6 5.3-1c0.5-0.2 1.1-0.2 1.6 0 0.7 0.2 1.1 1 1.3 1.7 1.3 4.5 3.4 8.9 5 13.3 2.6 7.1 5.2 14.3 7.8 21.5 2.4 6.3 4.7 12.6 7 19 0.5 1.2 0.9 2.4 1.4 3.6 0.7 3.9-1.8 6.3-5.6 5.3-6.2-2.2-12.3-4.6-18.5-6.8-6.4-2.4-12.8-4.6-19.3-7zm202.6-74.6c0.8-3.9 3.6-9.7 6.1-12.8 0 0 15.4-19 19.6-24 1.5-1.9 2.5-3.1 3.2-4 0.3-0.4 0.3-0.4 0.3-0.4 0.3-0.4 1.1-1.2 1.7-1.8 0.6-0.5 2.3-0.8 1.2 3l-32.5 72.2c-2.1 3.4-3.6 2.9-3.2-1.2zm-40.1 36.8c-2.7 3-6.2 2.5-7.8-1.2-2.7-6.2-5.3-12.5-7.9-18.8-1.3-3.2-2.7-6.4-4-9.6-2.1-4.8-4.3-10.1-3.4-15.4 0.6-3.5 2.5-6.6 4.6-9.4 6.7-9 12.6-18.7 18.8-28.1 2.1-3.4 5.2-3.2 6.9 0.4l23.6 31.8c2.5 3.1 3.2 8.7 1.7 12.5zm3.9-203.9c-4 0.3-9.4-2-11.9-5.1l-13-15.8c-2.9-2.8-2-6 1.9-7l21.7-5.1c4-1 8.5-1.3 10-0.1 1.5 1.1 5.7 6.6 6.9 10.3l5 14.8c1.4 3.8-0.7 7-4.7 7.2zm-10.6 12.2q0.3-0.6 0.5-1.1c1.9-3.2 6.5-5.7 10.1-5.9l17-0.9c4-0.2 7.5 2.9 7.8 6.9l2.2 35.3c-0.3 4.1-3.4 5.8-7 4l-31.5-15.8c-3.3-2.3-4.9-7.3-3.5-11 1.4-3.9 2.5-7.9 4.4-11.5zm69.7 21.3c0.1 1.4-0.9 2.9-2.1 3.8-5.7 4.4-12.6 7.7-18.9 11.4-3.4 2-6.1 0.4-5.9-3.7l-1-29.5c-0.2-4 2.1-5.1 5.2-2.6 7.3 5.7 15.8 10.9 21.5 18.3 0.5 0.7 1 1.3 1.2 2.3zm-1.6 83.3c1.9 3.5 2.6 7.4 1.7 8.6 0 0 0 0-1.4 1.6-4 4.9-18.5 22.8-18.5 22.8-2.5 3.1-6.5 3-8.8-0.3l-23.8-32.3c-1.6-3.7-1.6-9.7 0.1-13.4l17.8-35.8c2.2-3.4 5.5-3.3 7.3 0.3zm14.4-16c-0.2 4-1.6 9.4-3 11.8-1.5 2.5-5.8 3.7-7.7 0.1l-25.5-48.3c-1.8-3.5-0.5-8.1 3-10.1l17.1-10c3.4-2 7.1-0.5 8.2 3.3 0 0 7.9 30 7.9 49.5 0 3.7 0 3.7 0 3.7zm-33.1-103.4c5.2 7 10.2 15.6 10.2 15.6 2 3.5 1.2 4.3-1.9 1.8l-12.6-10.2c-3-2.6-6.4-7.2-7.5-10.2-1.2-3-3.8-14.9-1.1-12 0 0 7.5 7.8 12.9 15zm-103.7-47.5c-3.4-2.9-2.4-7.6 1.7-8.1l11.8-2.2c3.9-0.7 10.2-0.1 13.9 1.4l31.8 15.8c3.5 2.1 3.2 5-0.5 6.4l-22.3 4.5c-3.9 0.8-9.9-0.3-13.3-2.5zm18.9 31c2.8-2.9 7.4-3 10.2-0.2l14.1 16.8c2.6 3.1 3 8.4 1.1 11.9l-4.7 13.6c-1.4 3.7-5.8 6.8-9.8 6.7l-42.4-1.4c-4-0.2-6.4-3.5-5.4-7.4zm21 59.5c1.1-1.2 2.1-2.7 3.8-3.3 1-0.3 2.1-0.3 3.1 0.1 1.5 0.5 2.8 1.5 4.2 2l32.1 16.2c3.6 1.8 4.6 6 2.4 9.3l-18.3 36.2c-1.8 3.6-5.9 4.7-9.2 2.4l-38.2-28.7c-3.2-2.4-4.3-7.3-2.4-10.9zm-32.1 40.8c2.1-3.5 6.3-4.4 9.5-1.9l38.1 28.5c3.3 2.3 4.1 6.9 1.9 10.2l-23.1 36.4c-2.7 3.7-5.2 6.4-9.2 6.1l-26.7-1.9c-4.1 0-7.5-3.3-7.7-7.3 0 0-0.3-5.2-0.9-13-0.4-6-0.8-12.8-0.8-12.8-0.3-4 1-10.2 2.9-13.7zm-21.3 89c1.8-3.5 6.7-6.5 10.7-6.5l27.8 2.1c4 0.3 8.5 3.5 10.1 7.3l13 30.9c1.7 3.7 0 7.8-3.8 9.1l-72.2 28.1c-3.5 1.3-5.3 0.7-4.3-3.2zm11.8 91.2q-0.8 0.2-1.5 0.3c-9 2-16-3.3-23.3-7.5-3.4-2.2-3.6-6.2-0.1-7.9l69.7-27.5c3.7-1.4 5.2 0.3 3.3 3.8l-10.4 22.5c-1.7 3.7-6.1 7.7-9.9 9-6.6 1.7-13.2 3.4-19.8 5.1-2.6 0.7-5.3 1.5-8 2.2zm47.6-16.3c-3.5 2-4.9 0.8-3.1-2.8l10.2-21.2c2-3.5 6.2-8.4 9.3-10.9l27.8-28.1c2.6-2.3 2.9-2.2 2.9 1.8l-0.6 19c0.1 4-2.2 9.4-5.2 12.1zm-223.4-91.3c-1.7 4.6-4.2 4.6-5.6-0.2-0.2-0.7-0.4-1.4-0.6-2.1-2-7.1-4.1-14.1-6.1-21-2.1-6.9-4.7-13.9-4.5-21.2 0.1-0.8 0.2-1.6 0.7-2.2 0.9-1.1 2.7-0.9 4-0.4 7.3 2.8 10.5 10.8 13.3 17.6l1.7 4.3c1.9 4.6 2 12.1 0.3 16.7zm517.3-92.7c0 38-27.1 62.5-73.9 62.5-9.4 0-17.4-0.2-24.9-0.8v61c-5.2 1-10.2 1.6-15.7 1.6-5.2 0-10.2-0.6-15.7-1.6v-174.9c14.6-3.5 33.7-6 55.2-6 52.3 0 75 23.4 75 58.2zm-32.6 0.2c0-19-13.5-31.1-41.7-31.1-8.2 0-16.5 0.5-24.5 1.4v64.2c7.2 0.6 15.5 0.8 24.9 0.8 29.7 0 41.3-14.9 41.3-35.3zm106.2 126.6c-38.3 0-69.2-31-69.2-69.4 0-38.3 30.9-69.3 69.2-69.3 38.3 0 69.3 31 69.3 69.3 0 38.4-31 69.4-69.3 69.4zm37.8-69.5c0-23.4-16.9-42.2-37.8-42.2-20.9 0-37.8 18.8-37.8 42.2 0 23.3 16.9 42.2 37.8 42.2 20.9 0 37.8-18.9 37.8-42.2zm51.1 65.3v-180.9c5-1 10.2-1.4 15.4-1.4 5.3 0 10.8 0.3 16 1.4v180.9c-4.9 1.1-10.4 1.4-15.7 1.4-4.9 0-10.2-0.3-15.7-1.4zm183.9-127.9c-16.6 82.7-44.7 137.9-98.2 185.6-10.2-2.8-16.9-11.6-19.9-20.5 14.1-13.4 26.7-27 35.3-40.5-25.6-41.3-39.7-80.5-50.5-125.1 5-1.7 13.5-2.8 21.5-2.8 3.9 0 8.6 0.6 12.7 1.1 7.2 33.6 17.4 64.7 32.8 97 0.9 2 1.7 3.9 2.3 5.6 0.8-2 1.3-3.9 2.2-5.6 14.8-30.6 23.1-63.7 29.7-97 3.9-0.6 8.6-1.1 12.4-1.1 7 0 14.2 1.4 19.7 3.3zm164.9-48.8v175.3c-9.1 2.2-19.9 2.8-29 2.5l-81.9-117.5-5-9.4 0.6 11v114.7c-5.6 1.1-10.2 1.7-15.5 1.7-4.9 0-9.4-0.6-15.2-1.7v-175c6.7-2.4 19.1-4.4 29.3-2.7l81.7 117.4 4.9 8.8-0.5-12.4v-112.7c5.8-1.1 9.6-1.6 15.2-1.6 5.2 0 10.1 0.5 15.4 1.6zm89.5 180.9c-38.3 0-69.2-31-69.2-69.4 0-38.3 30.9-69.3 69.2-69.3 38.3 0 69.3 31 69.3 69.3 0 38.4-31 69.4-69.3 69.4zm37.9-69.5c0-23.4-16.9-42.2-37.8-42.2-20.9 0-37.8 18.8-37.8 42.2 0 23.3 16.9 42.2 37.8 42.2 20.9 0 37.8-18.9 37.8-42.2zm169.3-63.1c-11.8 48.5-29.7 92.3-50.7 128.5-5 1-10.2 1.3-14.9 1.3-5 0-10.2-0.2-15.5-1.3-24-40-38.9-80.5-51.3-128.5 4.4-1.4 13.5-2.8 21.5-2.8 4.2 0 8.6 0.6 12.1 1.1 10 39.4 22.9 75.5 32.3 97 0.6 1.4 1.1 2.8 1.4 4.2l1.6-4.2c10.8-24.8 21.8-57.6 31.5-97 3.6-0.6 8-1.1 12.1-1.1 7.5 0 15 1.1 19.9 2.8zm72.4 132.6c-38.3 0-69.3-31-69.3-69.4 0-38.3 31-69.3 69.3-69.3 38.3 0 69.2 31 69.2 69.3 0 38.4-30.9 69.4-69.2 69.4zm37.8-69.5c0-23.4-16.9-42.2-37.8-42.2-20.9 0-37.7 18.8-37.7 42.2 0 23.3 16.8 42.2 37.7 42.2 20.9 0 37.8-18.9 37.8-42.2zm67.1-16.2c-13.3 0-24.1-11.1-24.1-24.8 0-13.7 10.8-24.8 24.1-24.8 13.4 0 24.2 11.1 24.2 24.8 0 13.7-10.8 24.8-24.2 24.8zm19.2-24.7c0-11-8.5-19.8-19-19.8-10.6 0-19.1 8.8-19.1 19.8 0 10.9 8.5 19.8 19.1 19.8 10.5 0 19-8.9 19-19.8zm-13.9 2.4l6.7 11.5c-0.8 0.2-1.7 0.4-2.8 0.4-0.9 0-2.1 0-2.8-0.1l-6.3-10.8c-1.6 0-3.2-0.1-4.8-0.2v10.9c-0.7 0.2-1.4 0.2-2 0.2-1.1 0-2.1 0-3.2-0.2v-27.6c2.8-0.7 6.7-1 10-1 7.7 0 10.9 3.4 10.9 8.7 0 4-2.4 6.8-5.7 8.2zm-10-4.2c1.6 0.2 3.2 0.2 4.8 0.2 4.2 0 5.3-1.9 5.3-4.2 0-2.5-1.4-4-5.3-4-1.6 0-3.2 0-4.8 0.3z"/>
</svg>