<?xml version="1.0" encoding="iso-8859-1"?>
<!-- Uploaded to: SVG Repo, www.svgrepo.com, Generator: SVG Repo Mixer Tools -->
<svg fill="#000000" height="800px" width="800px" version="1.1" id="Layer_1" xmlns="http://www.w3.org/2000/svg" xmlns:xlink="http://www.w3.org/1999/xlink" 
	 viewBox="0 0 512 512" xml:space="preserve">
<g>
	<g>
		<path d="M298.667,0H21.333C9.551,0,0,9.551,0,21.333c0,11.782,9.551,21.333,21.333,21.333h277.333
			c94.842,0,170.667,75.825,170.667,170.667S393.509,384,298.667,384H72.837l48.915-48.915c8.331-8.331,8.331-21.839,0-30.17
			c-8.331-8.331-21.839-8.331-30.17,0L6.248,390.248c-0.497,0.497-0.967,1.02-1.413,1.564c-0.202,0.246-0.378,0.506-0.567,0.759
			c-0.228,0.304-0.463,0.601-0.675,0.918c-0.203,0.303-0.379,0.618-0.565,0.929c-0.171,0.286-0.351,0.566-0.509,0.861
			c-0.17,0.317-0.314,0.644-0.466,0.968c-0.145,0.307-0.298,0.609-0.429,0.924c-0.13,0.315-0.236,0.637-0.35,0.957
			c-0.121,0.337-0.25,0.669-0.354,1.013c-0.097,0.32-0.168,0.646-0.249,0.969c-0.089,0.351-0.187,0.698-0.258,1.055
			c-0.074,0.375-0.119,0.753-0.173,1.13c-0.044,0.311-0.104,0.617-0.135,0.932c-0.138,1.4-0.138,2.811,0,4.211
			c0.031,0.316,0.09,0.622,0.135,0.933c0.054,0.377,0.098,0.755,0.172,1.13c0.071,0.358,0.169,0.705,0.258,1.056
			c0.081,0.323,0.152,0.648,0.249,0.968c0.104,0.345,0.234,0.677,0.355,1.014c0.115,0.32,0.22,0.642,0.35,0.957
			c0.13,0.315,0.284,0.616,0.429,0.923c0.153,0.324,0.297,0.651,0.467,0.969c0.158,0.294,0.337,0.573,0.508,0.859
			c0.186,0.311,0.362,0.627,0.565,0.931c0.211,0.316,0.446,0.612,0.673,0.916c0.19,0.254,0.366,0.514,0.569,0.761
			c0.443,0.54,0.91,1.059,1.403,1.552c0.004,0.004,0.006,0.008,0.01,0.011l85.333,85.333c8.331,8.331,21.839,8.331,30.17,0
			c8.331-8.331,8.331-21.839,0-30.17l-48.915-48.915h225.83C417.073,426.667,512,331.739,512,213.333S417.073,0,298.667,0z"/>
	</g>
</g>
</svg>